<svg width="635" height="695" viewBox="0 0 635 695" fill="none" xmlns="http://www.w3.org/2000/svg">
<g clip-path="url(#clip0)">
<path d="M48.9567 505.976L44.4734 488.293C36.5238 484.924 28.3904 482.006 20.1122 479.553L19.5461 487.771L17.2507 478.717C6.98425 475.785 1.52588e-05 474.494 1.52588e-05 474.494C1.52588e-05 474.494 9.4341 510.369 29.2214 537.796L52.278 541.846L34.366 544.428C36.8561 547.424 39.5321 550.26 42.3783 552.919C71.1632 579.638 103.224 591.897 113.989 580.3C124.753 568.703 110.144 537.642 81.3594 510.924C72.4357 502.641 61.2258 495.994 50.0047 490.762L48.9567 505.976Z" fill="#E6E6E6"/>
<path d="M91.5967 486.772L96.8992 469.317C91.8355 462.324 86.3813 455.622 80.5627 449.243L75.8302 455.986L78.5451 447.049C71.2719 439.232 65.9606 434.517 65.9606 434.517C65.9606 434.517 55.4928 470.104 58.2547 503.81L75.8986 519.195L59.2302 512.148C59.8135 515.999 60.6384 519.81 61.7001 523.558C72.5305 561.309 93.6396 588.375 108.849 584.012C124.058 579.649 127.608 545.508 116.777 507.757C113.42 496.054 107.26 484.569 100.358 474.29L91.5967 486.772Z" fill="#E6E6E6"/>
<path d="M585.391 524.383L595.442 518.065C595.936 512.468 596.114 506.847 595.974 501.23L590.772 502.525L595.919 499.29C595.677 492.346 595.078 487.763 595.078 487.763C595.078 487.763 574.754 500.79 561.735 518.537L563.845 533.625L558.658 523.051C557.302 525.193 556.082 527.418 555.006 529.713C544.227 552.889 543.059 575.197 552.396 579.539C561.733 583.881 578.04 568.614 588.818 545.438C592.159 538.253 594.03 529.981 595.021 521.984L585.391 524.383Z" fill="#E6E6E6"/>
<path d="M605.823 546.939L617.693 546.726C621.009 542.19 624.067 537.47 626.851 532.589L621.728 531.01L627.806 530.901C631.189 524.831 633.045 520.598 633.045 520.598C633.045 520.598 608.912 521.245 588.594 529.707L582.602 543.714L583.627 531.981C581.359 533.113 579.165 534.388 577.057 535.796C555.85 550.064 543.319 568.556 549.068 577.1C554.816 585.644 576.667 581.003 597.873 566.735C604.448 562.311 610.325 556.196 615.307 549.864L605.823 546.939Z" fill="#E6E6E6"/>
<path d="M634.037 583.962H1.44557V585.558H634.037V583.962Z" fill="#3F3D56"/>
<path d="M181.034 221.044L179.396 220.222L174.957 229.069L176.596 229.891L181.034 221.044Z" fill="white"/>
<path d="M171.594 442.426L171.051 442.49L171.393 445.42L171.935 445.357L171.594 442.426Z" fill="#3F3D56"/>
<path d="M174.834 468.291L174.662 467.772L171.861 468.701L172.033 469.22L174.834 468.291Z" fill="white"/>
<path d="M172.295 453.098L171.75 453.131L171.927 456.076L172.473 456.043L172.295 453.098Z" fill="white"/>
<path d="M169.746 436.948L169.2 436.981L169.377 439.926L169.923 439.893L169.746 436.948Z" fill="white"/>
<path d="M208.72 448.994L208.515 448.488L205.779 449.593L205.984 450.099L208.72 448.994Z" fill="#FF6584"/>
<path d="M176.466 448.133L175.938 447.991L175.175 450.841L175.702 450.983L176.466 448.133Z" fill="#FF6584"/>
<path d="M205.804 227.299H204.081V236.601H205.804V227.299Z" fill="#3F3D56"/>
<path d="M204.77 249.693H203.048V258.995H204.77V249.693Z" fill="white"/>
<path d="M203.465 444.103L203.102 443.74L201.142 445.7L201.505 446.063L203.465 444.103Z" fill="white"/>
<path d="M208.621 473.804L208.258 473.441L206.298 475.402L206.661 475.765L208.621 473.804Z" fill="white"/>
<path d="M204.508 461.493L204.012 461.36L203.294 464.039L203.79 464.171L204.508 461.493Z" fill="#FF6584"/>
<path d="M205.789 451.365L205.426 451.001L203.465 452.962L203.828 453.325L205.789 451.365Z" fill="#FF6584"/>
<path d="M197.903 451.031C198.345 450.589 198.593 449.99 198.593 449.365C198.593 448.74 198.345 448.141 197.903 447.699C197.461 447.257 196.862 447.009 196.237 447.009C195.612 447.009 195.013 447.257 194.571 447.699L119.404 522.867C118.962 523.309 118.714 523.908 118.714 524.533C118.714 525.157 118.962 525.757 119.404 526.198C119.846 526.64 120.445 526.888 121.07 526.888C121.694 526.888 122.293 526.64 122.735 526.198L197.419 451.514" fill="#3F3D56"/>
<path d="M205.586 441.544C200.111 436.075 192.995 432.55 185.327 431.509C177.659 430.467 169.861 431.966 163.125 435.776C156.39 439.586 151.087 445.497 148.029 452.606C144.972 459.715 144.326 467.629 146.193 475.139C148.059 482.649 152.334 489.342 158.363 494.192C164.393 499.043 171.845 501.785 179.581 501.999C187.316 502.213 194.909 499.887 201.198 495.377C207.486 490.868 212.125 484.422 214.403 477.027C216.298 470.869 216.479 464.312 214.925 458.06C213.372 451.808 210.143 446.098 205.586 441.544V441.544ZM176.591 480.08C174.153 479.403 171.932 478.107 170.143 476.317C169.782 475.955 169.447 475.574 169.126 475.186C166.917 472.464 165.754 469.043 165.847 465.54C165.94 462.036 167.282 458.682 169.631 456.081C171.98 453.48 175.182 451.805 178.658 451.358C182.134 450.911 185.655 451.721 188.586 453.643C191.517 455.565 193.664 458.471 194.64 461.837C195.616 465.202 195.357 468.806 193.909 471.998C192.461 475.189 189.92 477.758 186.744 479.24C183.568 480.722 179.967 481.02 176.591 480.08Z" fill="#EC69EE"/>
<path d="M125.326 244.637C125.326 242.541 124.493 240.531 123.011 239.049C121.529 237.567 119.519 236.734 117.423 236.734C115.328 236.734 113.318 237.567 111.836 239.049C110.354 240.531 109.521 242.541 109.521 244.637V577.701C109.521 578.739 109.725 579.767 110.123 580.725C110.52 581.684 111.102 582.555 111.836 583.289C112.569 584.023 113.441 584.605 114.399 585.002C115.358 585.399 116.386 585.604 117.423 585.604C118.461 585.604 119.489 585.399 120.448 585.002C121.406 584.605 122.277 584.023 123.011 583.289C123.745 582.555 124.327 581.684 124.724 580.725C125.121 579.767 125.326 578.739 125.326 577.701V246.932" fill="#3F3D56"/>
<path d="M226.129 241.685C212.559 216.018 190.067 196.204 162.895 185.98C135.722 175.755 105.747 175.827 78.624 186.182C51.5007 196.536 29.1037 216.457 15.6572 242.188C2.21076 267.919 -1.35563 297.681 5.6307 325.86C12.617 354.04 29.6732 378.689 53.5821 395.159C77.4911 411.628 106.6 418.78 135.419 415.265C164.238 411.75 190.775 397.811 210.024 376.078C229.274 354.344 239.905 326.318 239.913 297.285C239.921 277.905 235.189 258.817 226.129 241.685V241.685ZM145.268 340.2C135.84 345.521 124.923 347.59 114.202 346.086C103.481 344.582 93.5536 339.588 85.9543 331.878C78.355 324.168 73.5066 314.169 72.1583 303.427C70.81 292.686 73.0369 281.799 78.4948 272.45C83.9528 263.1 92.3379 255.809 102.355 251.701C112.371 247.594 123.462 246.9 133.912 249.727C144.362 252.554 153.591 258.743 160.172 267.339C166.753 275.935 170.319 286.46 170.32 297.285C170.346 306.022 168.038 314.606 163.633 322.151C159.229 329.696 152.888 335.927 145.268 340.2H145.268Z" fill="#6C63FF"/>
<path opacity="0.2" d="M120.708 408.561C89.828 408.561 60.1601 396.541 37.9869 375.048C15.8136 353.555 2.87606 324.276 1.91365 293.411C1.8725 294.696 1.85146 295.987 1.85053 297.283C1.84671 312.894 4.91824 328.353 10.8897 342.777C16.8612 357.2 25.6156 370.307 36.6529 381.347C47.6903 392.387 60.7944 401.144 75.2168 407.119C89.6392 413.094 105.097 416.17 120.708 416.17C136.32 416.17 151.778 413.094 166.2 407.119C180.623 401.144 193.727 392.387 204.764 381.347C215.801 370.307 224.556 357.2 230.527 342.777C236.499 328.353 239.57 312.894 239.566 297.283C239.566 295.985 239.545 294.693 239.503 293.406C238.542 324.272 225.605 353.553 203.432 375.047C181.258 396.541 151.59 408.561 120.708 408.561V408.561Z" fill="black"/>
<path opacity="0.2" d="M121.053 237.976C109.323 237.976 97.8574 241.455 88.105 247.972C78.3526 254.489 70.7517 263.751 66.2633 274.588C61.775 285.425 60.6008 297.349 62.8893 308.853C65.1777 320.357 70.8261 330.924 79.12 339.218C87.414 347.512 97.9811 353.16 109.485 355.449C120.989 357.737 132.913 356.563 143.75 352.075C154.587 347.586 163.849 339.985 170.366 330.233C176.883 320.481 180.362 309.015 180.363 297.285C180.345 281.561 174.091 266.485 162.972 255.366C151.853 244.247 136.777 237.993 121.053 237.976V237.976ZM145.268 340.2C135.84 345.521 124.922 347.59 114.202 346.086C103.481 344.581 93.5535 339.588 85.9542 331.878C78.3549 324.167 73.5065 314.169 72.1582 303.427C70.81 292.686 73.0368 281.799 78.4948 272.45C83.9527 263.1 92.3379 255.808 102.354 251.701C112.371 247.594 123.461 246.9 133.912 249.727C144.362 252.553 153.591 258.743 160.172 267.339C166.753 275.935 170.319 286.459 170.32 297.285C170.346 306.022 168.038 314.606 163.633 322.151C159.229 329.696 152.888 335.927 145.268 340.2V340.2Z" fill="black"/>
<path d="M226.13 240.256V260.028C226.131 261.472 225.7 262.883 224.892 264.079C224.085 265.276 222.937 266.203 221.598 266.741C220.258 267.28 218.788 267.405 217.377 267.101C215.966 266.796 214.678 266.077 213.68 265.034V267.287C213.68 269.565 212.775 271.75 211.164 273.36C209.553 274.971 207.369 275.876 205.091 275.876C202.813 275.876 200.628 274.971 199.018 273.36C197.407 271.75 196.502 269.565 196.502 267.287V265.41C195.463 266.344 194.175 266.957 192.795 267.175C191.415 267.393 190.001 267.205 188.725 266.636C187.449 266.066 186.365 265.139 185.605 263.966C184.846 262.794 184.442 261.426 184.444 260.028L184.099 239.013V234.165C184.098 233.39 183.789 232.646 183.24 232.098C182.691 231.55 181.947 231.242 181.171 231.242C180.395 231.242 179.651 231.55 179.102 232.098C178.553 232.646 178.244 233.39 178.243 234.165V239.013L177.898 256.583C177.898 258.502 177.136 260.342 175.779 261.699C174.422 263.056 172.582 263.818 170.663 263.818C168.744 263.818 166.904 263.056 165.547 261.699C164.191 260.342 163.428 258.502 163.428 256.583L162.543 239.013V230.031C162.543 228.758 162.037 227.538 161.137 226.638C160.237 225.738 159.017 225.232 157.744 225.232C156.471 225.232 155.25 225.738 154.35 226.638C153.45 227.538 152.945 228.758 152.945 230.031V239.013L152.404 256.583C152.405 258.088 151.937 259.555 151.064 260.781C150.192 262.007 148.958 262.93 147.536 263.421C146.114 263.913 144.574 263.948 143.131 263.523C141.687 263.097 140.413 262.232 139.485 261.048C138.34 262.511 136.676 263.476 134.838 263.743C133.001 264.01 131.131 263.558 129.618 262.481V267.287C129.618 269.565 128.713 271.75 127.102 273.36C125.491 274.971 123.307 275.876 121.029 275.876C118.751 275.876 116.566 274.971 114.956 273.36C113.345 271.75 112.44 269.565 112.44 267.287V252.449C112.441 254.104 111.874 255.709 110.834 256.997C109.793 258.284 108.343 259.176 106.725 259.523C105.107 259.87 103.418 259.652 101.942 258.904C100.465 258.156 99.2894 256.925 98.6112 255.415V267.287C98.6112 269.565 97.7063 271.75 96.0956 273.36C94.4849 274.971 92.3003 275.876 90.0224 275.876C87.7445 275.876 85.5599 274.971 83.9492 273.36C82.3385 271.75 81.4336 269.565 81.4336 267.287V239.013H81.3854V267.287C81.3854 269.565 80.4805 271.75 78.8698 273.36C77.2591 274.971 75.0745 275.876 72.7966 275.876C70.5187 275.876 68.3341 274.971 66.7234 273.36C65.1127 271.75 64.2078 269.565 64.2078 267.287V255.515C63.511 257.006 62.3265 258.214 60.8501 258.941C59.3736 259.667 57.6935 259.869 56.0873 259.511C54.481 259.154 53.0447 258.259 52.0156 256.975C50.9865 255.691 50.4262 254.094 50.4272 252.449V239.013H49.6899V263.153C49.6899 265.431 48.785 267.615 47.1743 269.226C45.5636 270.837 43.379 271.742 41.1011 271.742C38.8233 271.742 36.6387 270.837 35.028 269.226C33.4172 267.615 32.5124 265.431 32.5124 263.153V252.449C32.5133 253.4 32.3269 254.341 31.9637 255.22C31.6005 256.098 31.0678 256.897 30.3959 257.569C29.724 258.242 28.9261 258.775 28.0478 259.14C27.1696 259.504 26.2282 259.691 25.2775 259.691C24.3268 259.691 23.3855 259.504 22.5072 259.14C21.629 258.775 20.8311 258.242 20.1592 257.569C19.4873 256.897 18.9545 256.098 18.5914 255.22C18.2282 254.341 18.0418 253.4 18.0427 252.449V236.522C28.6534 218.114 44.003 202.885 62.4946 192.421C80.9862 181.956 101.944 176.638 123.188 177.019C144.432 177.4 165.185 183.467 183.29 194.589C201.394 205.71 216.187 221.479 226.13 240.256V240.256Z" fill="#E6E6E6"/>
<path opacity="0.2" d="M72.7966 271.742C71.6687 271.742 70.5518 271.52 69.5097 271.088C68.4677 270.657 67.5208 270.024 66.7232 269.226C65.9257 268.429 65.293 267.482 64.8614 266.44C64.4299 265.398 64.2078 264.281 64.2079 263.153V267.632C64.2079 269.91 65.1127 272.094 66.7235 273.705C68.3342 275.316 70.5187 276.221 72.7966 276.221C75.0745 276.221 77.2591 275.316 78.8698 273.705C80.4805 272.094 81.3854 269.91 81.3854 267.632V263.153C81.3855 264.281 81.1634 265.398 80.7318 266.44C80.3002 267.482 79.6676 268.429 78.87 269.226C78.0725 270.024 77.1256 270.657 76.0835 271.088C75.0414 271.52 73.9245 271.742 72.7966 271.742Z" fill="black"/>
<path opacity="0.2" d="M90.0224 271.742C88.8945 271.742 87.7776 271.52 86.7355 271.088C85.6935 270.657 84.7466 270.024 83.949 269.226C83.1515 268.429 82.5188 267.482 82.0872 266.44C81.6557 265.398 81.4336 264.281 81.4337 263.153V267.632C81.4337 269.91 82.3386 272.094 83.9493 273.705C85.56 275.316 87.7446 276.221 90.0224 276.221C92.3003 276.221 94.4849 275.316 96.0956 273.705C97.7063 272.094 98.6112 269.91 98.6112 267.632V263.153C98.6113 264.281 98.3892 265.398 97.9576 266.44C97.526 267.482 96.8934 268.429 96.0958 269.226C95.2982 270.024 94.3514 270.657 93.3093 271.088C92.2672 271.52 91.1503 271.742 90.0224 271.742V271.742Z" fill="black"/>
<path opacity="0.2" d="M64.2079 251.381C63.511 252.872 62.3266 254.08 60.8501 254.807C59.3737 255.533 57.6936 255.734 56.0873 255.377C54.4811 255.02 53.0448 254.125 52.0157 252.841C50.9866 251.557 50.4263 249.96 50.4272 248.315V252.793C50.4263 254.439 50.9866 256.036 52.0157 257.32C53.0448 258.604 54.4811 259.498 56.0873 259.856C57.6936 260.213 59.3737 260.012 60.8501 259.285C62.3266 258.559 63.511 257.35 64.2079 255.86V251.381Z" fill="black"/>
<path opacity="0.2" d="M81.4337 234.879H81.3854V239.357H81.4337V234.879Z" fill="black"/>
<path opacity="0.2" d="M32.5124 248.315C32.5105 250.232 31.7474 252.071 30.3909 253.426C29.0343 254.781 27.1951 255.542 25.2776 255.542C23.36 255.542 21.5209 254.781 20.1643 253.426C18.8077 252.071 18.0447 250.232 18.0428 248.315V252.793C18.0447 254.711 18.8077 256.549 20.1643 257.905C21.5209 259.26 23.36 260.021 25.2776 260.021C27.1951 260.021 29.0343 259.26 30.3909 257.905C31.7474 256.549 32.5105 254.711 32.5124 252.793V248.315Z" fill="black"/>
<path opacity="0.2" d="M50.4272 234.879H49.69V239.357H50.4272V234.879Z" fill="black"/>
<path opacity="0.2" d="M41.1012 267.608C39.9733 267.608 38.8564 267.386 37.8143 266.954C36.7722 266.522 35.8254 265.89 35.0278 265.092C34.2302 264.295 33.5976 263.348 33.166 262.306C32.7344 261.264 32.5123 260.147 32.5124 259.019V263.498C32.5124 265.775 33.4173 267.96 35.028 269.571C36.6387 271.181 38.8233 272.086 41.1012 272.086C43.3791 272.086 45.5637 271.181 47.1744 269.571C48.7851 267.96 49.69 265.775 49.69 263.498V259.019C49.6901 260.147 49.468 261.264 49.0364 262.306C48.6048 263.348 47.9721 264.295 47.1746 265.092C46.377 265.89 45.4302 266.522 44.3881 266.954C43.346 267.386 42.2291 267.608 41.1012 267.608V267.608Z" fill="black"/>
<path opacity="0.2" d="M121.029 271.742C119.901 271.742 118.784 271.52 117.742 271.088C116.7 270.657 115.753 270.024 114.955 269.226C114.158 268.429 113.525 267.482 113.094 266.44C112.662 265.398 112.44 264.281 112.44 263.153V267.632C112.44 269.91 113.345 272.094 114.956 273.705C116.566 275.316 118.751 276.221 121.029 276.221C123.307 276.221 125.491 275.316 127.102 273.705C128.713 272.094 129.618 269.91 129.618 267.632V263.153C129.618 264.281 129.396 265.398 128.964 266.44C128.532 267.482 127.9 268.429 127.102 269.226C126.305 270.024 125.358 270.657 124.316 271.088C123.274 271.52 122.157 271.742 121.029 271.742Z" fill="black"/>
<path opacity="0.2" d="M184.099 230.031C184.099 229.255 183.791 228.51 183.242 227.961C182.693 227.411 181.948 227.103 181.171 227.103C180.394 227.103 179.649 227.411 179.1 227.961C178.551 228.51 178.243 229.255 178.243 230.031V234.51C178.242 234.125 178.317 233.744 178.464 233.388C178.611 233.032 178.827 232.709 179.099 232.436C179.371 232.164 179.694 231.948 180.049 231.8C180.405 231.653 180.786 231.577 181.171 231.577C181.556 231.577 181.937 231.653 182.293 231.8C182.648 231.948 182.971 232.164 183.243 232.436C183.515 232.709 183.731 233.032 183.878 233.388C184.025 233.744 184.1 234.125 184.099 234.51V230.031Z" fill="black"/>
<path opacity="0.2" d="M112.44 248.315C112.441 249.97 111.874 251.575 110.834 252.862C109.793 254.15 108.343 255.042 106.725 255.389C105.107 255.736 103.418 255.517 101.942 254.77C100.465 254.022 99.2894 252.791 98.6112 251.281V255.76C99.2894 257.269 100.465 258.501 101.942 259.248C103.418 259.996 105.107 260.215 106.725 259.867C108.343 259.52 109.793 258.629 110.834 257.341C111.874 256.054 112.441 254.449 112.44 252.793V248.315Z" fill="black"/>
<path opacity="0.2" d="M170.663 259.684C169.713 259.684 168.772 259.497 167.894 259.133C167.017 258.77 166.219 258.237 165.547 257.565C164.875 256.893 164.342 256.096 163.979 255.218C163.615 254.34 163.428 253.399 163.428 252.449L162.543 234.879V239.357L163.428 256.928C163.428 258.846 164.191 260.687 165.547 262.043C166.904 263.4 168.744 264.163 170.663 264.163C172.582 264.163 174.422 263.4 175.779 262.043C177.136 260.687 177.898 258.846 177.898 256.928L178.243 239.357V234.879L177.898 252.449C177.898 253.399 177.711 254.34 177.348 255.218C176.984 256.096 176.451 256.893 175.779 257.565C175.107 258.237 174.31 258.77 173.432 259.133C172.554 259.497 171.613 259.684 170.663 259.684V259.684Z" fill="black"/>
<path opacity="0.2" d="M218.895 263.129C217.921 263.129 216.956 262.932 216.059 262.549C215.163 262.166 214.353 261.605 213.68 260.9V263.153C213.68 265.431 212.775 267.616 211.164 269.226C209.553 270.837 207.369 271.742 205.091 271.742C202.813 271.742 200.628 270.837 199.018 269.226C197.407 267.616 196.502 265.431 196.502 263.153V261.275C195.463 262.21 194.175 262.823 192.795 263.041C191.415 263.258 190.001 263.071 188.725 262.502C187.449 261.932 186.365 261.005 185.605 259.832C184.846 258.659 184.442 257.292 184.444 255.894L184.099 234.879V239.357L184.444 260.373C184.442 261.77 184.846 263.138 185.605 264.311C186.365 265.484 187.449 266.411 188.725 266.98C190.001 267.55 191.415 267.737 192.795 267.52C194.175 267.302 195.463 266.689 196.502 265.754V267.632C196.502 269.91 197.407 272.094 199.018 273.705C200.628 275.316 202.813 276.221 205.091 276.221C207.369 276.221 209.553 275.316 211.164 273.705C212.775 272.094 213.68 269.91 213.68 267.632V265.379C214.678 266.421 215.966 267.141 217.377 267.445C218.788 267.75 220.258 267.624 221.598 267.086C222.937 266.547 224.085 265.62 224.892 264.424C225.7 263.227 226.131 261.816 226.13 260.373V255.894C226.13 256.844 225.943 257.785 225.58 258.663C225.216 259.541 224.683 260.338 224.012 261.01C223.34 261.682 222.542 262.215 221.664 262.578C220.786 262.942 219.846 263.129 218.895 263.129V263.129Z" fill="black"/>
<path opacity="0.2" d="M145.169 259.684C144.074 259.684 142.992 259.434 142.007 258.955C141.022 258.475 140.16 257.777 139.485 256.914C138.34 258.377 136.676 259.342 134.839 259.609C133.001 259.876 131.131 259.424 129.618 258.347V262.826C131.131 263.903 133.001 264.355 134.839 264.088C136.676 263.821 138.34 262.855 139.485 261.393C140.413 262.577 141.687 263.442 143.131 263.868C144.574 264.293 146.114 264.257 147.536 263.766C148.958 263.274 150.192 262.352 151.064 261.126C151.937 259.9 152.405 258.432 152.404 256.928L152.945 239.357V234.879L152.404 252.449C152.404 253.399 152.217 254.34 151.853 255.218C151.49 256.096 150.957 256.893 150.285 257.565C149.613 258.237 148.816 258.77 147.938 259.133C147.06 259.497 146.119 259.684 145.169 259.684Z" fill="black"/>
<path opacity="0.2" d="M162.543 225.897C162.543 224.624 162.037 223.404 161.137 222.504C160.237 221.604 159.017 221.098 157.744 221.098C156.471 221.098 155.25 221.604 154.35 222.504C153.45 223.404 152.945 224.624 152.945 225.897V230.376C152.945 229.103 153.45 227.882 154.35 226.982C155.25 226.082 156.471 225.577 157.744 225.577C159.017 225.577 160.237 226.082 161.137 226.982C162.037 227.882 162.543 229.103 162.543 230.376V225.897Z" fill="black"/>
<path d="M82.295 226.782H80.5724V236.084H82.295V226.782Z" fill="#3F3D56"/>
<path d="M114.852 221.787H113.129V231.089H114.852V221.787Z" fill="#3F3D56"/>
<path d="M73.5098 258.306H71.7872V267.608H73.5098V258.306Z" fill="#3F3D56"/>
<path d="M143.871 242.052L142.455 241.072L137.162 248.721L138.579 249.701L143.871 242.052Z" fill="#3F3D56"/>
<path d="M52.6543 227.355L51.5855 228.706L58.8802 234.478L59.949 233.127L52.6543 227.355Z" fill="#3F3D56"/>
<path d="M153.942 192.559L152.873 193.91L160.168 199.682L161.237 198.331L153.942 192.559Z" fill="#3F3D56"/>
<path d="M33.7059 237.002L32.6371 238.353L39.9318 244.125L41.0006 242.774L33.7059 237.002Z" fill="#3F3D56"/>
<path d="M88.6685 204.906H86.9459V214.208H88.6685V204.906Z" fill="white"/>
<path d="M41.4698 252.793H39.7473V262.095H41.4698V252.793Z" fill="white"/>
<path d="M122.087 191.47H120.364V200.772H122.087V191.47Z" fill="white"/>
<path d="M131.66 224.045L130.12 223.273L125.949 231.587L127.489 232.359L131.66 224.045Z" fill="white"/>
<path d="M123.736 258.497L122.197 257.724L118.025 266.039L119.565 266.811L123.736 258.497Z" fill="white"/>
<path d="M100.057 239.589L98.9143 240.878L105.875 247.049L107.017 245.76L100.057 239.589Z" fill="white"/>
<path d="M65.9501 199.281L64.8073 200.57L71.7677 206.741L72.9104 205.452L65.9501 199.281Z" fill="white"/>
<path d="M179.296 214.784L178.153 216.073L185.113 222.244L186.256 220.955L179.296 214.784Z" fill="white"/>
<path d="M137.609 184.467L136.467 185.756L143.427 191.927L144.57 190.638L137.609 184.467Z" fill="white"/>
<path d="M101.76 221.787H100.038V231.089H101.76V221.787Z" fill="#FF6584"/>
<path d="M198.94 227.661L197.354 226.988L193.719 235.55L195.305 236.223L198.94 227.661Z" fill="#FF6584"/>
<path d="M67.2793 236.794L65.7875 237.655L70.4384 245.711L71.9302 244.849L67.2793 236.794Z" fill="#FF6584"/>
<path d="M165.811 230.248L164.319 231.109L168.97 239.165L170.462 238.304L165.811 230.248Z" fill="#FF6584"/>
<path d="M104.488 196.141L102.996 197.003L107.647 205.058L109.139 204.197L104.488 196.141Z" fill="#FF6584"/>
<path d="M177.524 194.418L176.033 195.28L180.683 203.335L182.175 202.474L177.524 194.418Z" fill="#FF6584"/>
<path d="M82.7825 186.839L81.2907 187.7L85.9416 195.756L87.4334 194.895L82.7825 186.839Z" fill="#FF6584"/>
<path d="M144.825 203.183H143.102V212.485H144.825V203.183Z" fill="#FF6584"/>
<path d="M45.604 218.686H43.8814V227.988H45.604V218.686Z" fill="#FF6584"/>
<path opacity="0.2" d="M157.003 489.984C150.493 483.475 146.773 474.688 146.63 465.484C146.487 456.279 149.931 447.381 156.234 440.672C155.955 440.934 155.678 441.202 155.405 441.474C152.113 444.764 149.501 448.67 147.718 452.969C145.936 457.269 145.018 461.877 145.017 466.531C145.016 471.186 145.932 475.794 147.713 480.094C149.493 484.394 152.103 488.302 155.394 491.593C158.685 494.884 162.593 497.494 166.893 499.275C171.193 501.055 175.802 501.971 180.456 501.97C185.11 501.969 189.718 501.051 194.018 499.269C198.317 497.487 202.223 494.874 205.513 491.582C205.786 491.309 206.054 491.032 206.316 490.752C199.608 497.055 190.709 500.5 181.504 500.357C172.3 500.214 163.512 496.494 157.003 489.984V489.984Z" fill="black"/>
<path opacity="0.2" d="M194.466 452.664C191.709 449.906 188.197 448.027 184.372 447.265C180.548 446.503 176.583 446.893 172.98 448.385C169.377 449.876 166.297 452.403 164.13 455.645C161.964 458.888 160.807 462.7 160.807 466.599C160.807 470.499 161.964 474.311 164.13 477.553C166.297 480.796 169.377 483.322 172.98 484.814C176.583 486.306 180.548 486.696 184.372 485.934C188.197 485.172 191.709 483.293 194.466 480.535C198.154 476.835 200.225 471.824 200.225 466.599C200.225 461.375 198.154 456.364 194.466 452.664V452.664ZM190.918 476.317C188.162 479.071 184.426 480.618 180.531 480.618C176.635 480.618 172.899 479.071 170.143 476.317C169.782 475.955 169.447 475.574 169.126 475.185C167.337 472.98 166.226 470.303 165.927 467.48C165.628 464.656 166.154 461.805 167.441 459.274C168.729 456.743 170.722 454.64 173.181 453.219C175.639 451.797 178.457 451.119 181.293 451.266C184.129 451.414 186.861 452.38 189.159 454.048C191.457 455.716 193.222 458.015 194.241 460.666C195.259 463.317 195.488 466.206 194.898 468.984C194.308 471.761 192.925 474.309 190.918 476.317V476.317Z" fill="black"/>
<path d="M215.113 476.317L210.945 480.485C210.641 480.79 210.253 480.996 209.83 481.078C209.408 481.16 208.971 481.113 208.575 480.945C208.179 480.776 207.843 480.492 207.609 480.131C207.376 479.769 207.256 479.346 207.266 478.916L206.791 479.391C206.311 479.871 205.659 480.141 204.98 480.141C204.301 480.141 203.65 479.871 203.17 479.391C202.69 478.91 202.42 478.259 202.42 477.58C202.42 476.901 202.69 476.25 203.17 475.77L203.566 475.374C203.15 475.352 202.749 475.21 202.412 474.965C202.075 474.72 201.817 474.382 201.668 473.993C201.519 473.604 201.486 473.18 201.573 472.773C201.66 472.366 201.863 471.992 202.158 471.698L206.515 467.196L207.537 466.174C207.701 466.01 207.793 465.788 207.793 465.557C207.793 465.325 207.701 465.103 207.537 464.939C207.374 464.776 207.151 464.684 206.92 464.684C206.688 464.684 206.466 464.776 206.303 464.939L205.281 465.961L201.505 469.592C201.1 469.996 200.552 470.224 199.98 470.224C199.408 470.224 198.859 469.996 198.455 469.592C198.05 469.188 197.823 468.639 197.823 468.067C197.823 467.495 198.05 466.946 198.455 466.542L201.972 462.652L203.865 460.759C204.131 460.49 204.28 460.127 204.279 459.748C204.279 459.37 204.128 459.007 203.86 458.74C203.593 458.472 203.23 458.322 202.852 458.321C202.474 458.32 202.11 458.469 201.842 458.735L199.949 460.629L196.131 464.218C194.418 463.203 192.59 462.398 190.684 461.822C190.368 461.506 190.159 461.099 190.085 460.658L189.072 461.671C188.591 462.152 187.94 462.421 187.261 462.421C186.582 462.421 185.931 462.152 185.451 461.671C184.971 461.191 184.701 460.54 184.701 459.861C184.701 459.182 184.971 458.531 185.451 458.051L188.578 454.923C188.23 455.272 187.772 455.491 187.281 455.543C186.791 455.595 186.297 455.477 185.883 455.209C185.468 454.941 185.158 454.539 185.005 454.071C184.851 453.602 184.863 453.094 185.038 452.633L182.536 455.136C182.055 455.616 181.404 455.886 180.725 455.886C180.046 455.886 179.395 455.616 178.915 455.136C178.435 454.655 178.165 454.004 178.165 453.325C178.165 452.646 178.435 451.995 178.915 451.515L184.875 445.555L184.865 445.545L178.905 451.505C178.424 451.985 177.773 452.255 177.094 452.255C176.415 452.255 175.764 451.985 175.284 451.505C174.804 451.024 174.534 450.373 174.534 449.694C174.534 449.015 174.804 448.364 175.284 447.884L177.765 445.402C177.304 445.57 176.8 445.575 176.335 445.417C175.871 445.259 175.474 444.947 175.211 444.533C174.948 444.119 174.834 443.628 174.888 443.14C174.941 442.653 175.16 442.198 175.507 441.851L178.339 439.019L178.184 438.864L173.095 443.952C172.615 444.432 171.964 444.702 171.285 444.702C170.606 444.702 169.954 444.432 169.474 443.952C168.994 443.472 168.724 442.821 168.724 442.142C168.724 441.463 168.994 440.811 169.474 440.331L171.731 438.075C171.326 438.48 170.777 438.707 170.206 438.707C169.634 438.707 169.085 438.48 168.681 438.075C168.276 437.671 168.049 437.122 168.049 436.55C168.049 435.978 168.276 435.429 168.681 435.025L172.038 431.668C178.155 430.024 184.6 430.05 190.704 431.742C196.807 433.434 202.346 436.73 206.744 441.289C211.141 445.847 214.237 451.5 215.709 457.661C217.181 463.821 216.975 470.263 215.113 476.317V476.317Z" fill="#E6E6E6"/>
<path opacity="0.2" d="M176.155 450.633C175.917 450.396 175.729 450.113 175.6 449.803C175.471 449.492 175.405 449.159 175.405 448.823C175.405 448.487 175.471 448.154 175.6 447.843C175.729 447.532 175.917 447.25 176.155 447.012L175.211 447.957C174.731 448.437 174.461 449.088 174.461 449.767C174.461 450.446 174.731 451.097 175.211 451.577C175.691 452.057 176.343 452.327 177.022 452.327C177.701 452.327 178.352 452.057 178.832 451.577L179.776 450.633C179.538 450.871 179.256 451.06 178.945 451.188C178.635 451.317 178.302 451.383 177.966 451.383C177.629 451.383 177.297 451.317 176.986 451.188C176.675 451.06 176.393 450.871 176.155 450.633V450.633Z" fill="black"/>
<path opacity="0.2" d="M179.786 454.264C179.549 454.027 179.36 453.744 179.231 453.434C179.103 453.123 179.036 452.79 179.036 452.454C179.036 452.118 179.103 451.785 179.231 451.474C179.36 451.163 179.549 450.881 179.786 450.643L178.842 451.588C178.604 451.825 178.416 452.107 178.287 452.418C178.159 452.729 178.092 453.062 178.092 453.398C178.092 453.734 178.159 454.067 178.287 454.378C178.416 454.688 178.604 454.971 178.842 455.208C179.08 455.446 179.362 455.635 179.673 455.763C179.983 455.892 180.316 455.958 180.653 455.958C180.989 455.958 181.322 455.892 181.632 455.763C181.943 455.635 182.225 455.446 182.463 455.208L183.407 454.264C183.169 454.502 182.887 454.691 182.576 454.819C182.266 454.948 181.933 455.014 181.597 455.014C181.26 455.014 180.928 454.948 180.617 454.819C180.306 454.691 180.024 454.502 179.786 454.264V454.264Z" fill="black"/>
<path opacity="0.2" d="M178.637 444.531C178.176 444.698 177.671 444.703 177.207 444.545C176.742 444.387 176.346 444.076 176.083 443.662C175.819 443.248 175.705 442.756 175.759 442.269C175.813 441.781 176.031 441.327 176.378 440.98L175.434 441.924C175.087 442.271 174.869 442.725 174.815 443.213C174.761 443.7 174.875 444.192 175.139 444.606C175.402 445.02 175.798 445.331 176.263 445.489C176.727 445.647 177.232 445.642 177.693 445.475L178.637 444.531Z" fill="black"/>
<path opacity="0.2" d="M185.736 444.673L184.792 445.617L184.802 445.628L185.746 444.684L185.736 444.673Z" fill="black"/>
<path opacity="0.2" d="M172.602 437.204C172.402 437.404 172.164 437.563 171.902 437.671C171.641 437.78 171.36 437.835 171.077 437.835C170.794 437.835 170.513 437.78 170.252 437.671C169.99 437.563 169.752 437.404 169.552 437.204C169.352 437.003 169.193 436.766 169.084 436.504C168.976 436.242 168.92 435.962 168.92 435.679C168.92 435.395 168.976 435.115 169.084 434.853C169.193 434.592 169.352 434.354 169.552 434.154L168.608 435.098C168.203 435.502 167.976 436.051 167.976 436.623C167.976 437.195 168.203 437.743 168.608 438.148C169.012 438.552 169.561 438.779 170.133 438.779C170.705 438.779 171.253 438.552 171.658 438.148L172.602 437.204Z" fill="black"/>
<path opacity="0.2" d="M179.055 437.992L178.111 438.936L178.266 439.092L179.21 438.148L179.055 437.992Z" fill="black"/>
<path opacity="0.2" d="M170.346 443.081C170.108 442.843 169.919 442.561 169.791 442.25C169.662 441.94 169.596 441.607 169.596 441.27C169.596 440.934 169.662 440.601 169.791 440.291C169.919 439.98 170.108 439.698 170.346 439.46L169.402 440.404C169.164 440.642 168.975 440.924 168.847 441.235C168.718 441.545 168.652 441.878 168.652 442.214C168.652 442.551 168.718 442.884 168.847 443.194C168.975 443.505 169.164 443.787 169.402 444.025C169.639 444.263 169.922 444.451 170.232 444.58C170.543 444.709 170.876 444.775 171.212 444.775C171.548 444.775 171.881 444.709 172.192 444.58C172.502 444.451 172.785 444.263 173.022 444.025L173.967 443.081C173.729 443.319 173.447 443.507 173.136 443.636C172.825 443.765 172.492 443.831 172.156 443.831C171.82 443.831 171.487 443.765 171.176 443.636C170.866 443.507 170.583 443.319 170.346 443.081V443.081Z" fill="black"/>
<path opacity="0.2" d="M186.322 460.8C186.084 460.562 185.896 460.28 185.767 459.969C185.638 459.659 185.572 459.326 185.572 458.99C185.572 458.653 185.638 458.32 185.767 458.01C185.896 457.699 186.084 457.417 186.322 457.179L185.378 458.123C185.14 458.361 184.952 458.643 184.823 458.954C184.694 459.265 184.628 459.597 184.628 459.934C184.628 460.27 184.694 460.603 184.823 460.913C184.952 461.224 185.14 461.506 185.378 461.744C185.616 461.982 185.898 462.17 186.209 462.299C186.519 462.428 186.852 462.494 187.188 462.494C187.525 462.494 187.858 462.428 188.168 462.299C188.479 462.17 188.761 461.982 188.999 461.744L189.943 460.8C189.705 461.038 189.423 461.226 189.112 461.355C188.802 461.484 188.469 461.55 188.132 461.55C187.796 461.55 187.463 461.484 187.153 461.355C186.842 461.226 186.56 461.038 186.322 460.8Z" fill="black"/>
<path opacity="0.2" d="M208.409 465.303C208.572 465.139 208.664 464.917 208.664 464.685C208.664 464.454 208.572 464.232 208.409 464.068C208.245 463.904 208.023 463.812 207.791 463.812C207.56 463.812 207.338 463.904 207.174 464.068L206.23 465.012C206.394 464.848 206.616 464.756 206.847 464.756C207.079 464.756 207.301 464.848 207.465 465.012C207.628 465.176 207.72 465.398 207.72 465.629C207.72 465.861 207.628 466.083 207.465 466.247L208.409 465.303Z" fill="black"/>
<path opacity="0.2" d="M189.45 454.051C189.101 454.4 188.643 454.619 188.153 454.671C187.662 454.724 187.168 454.606 186.754 454.338C186.34 454.07 186.03 453.668 185.876 453.199C185.723 452.73 185.734 452.223 185.91 451.762L184.966 452.706C184.79 453.167 184.778 453.674 184.932 454.143C185.086 454.612 185.396 455.014 185.81 455.282C186.224 455.55 186.718 455.668 187.208 455.615C187.699 455.563 188.157 455.344 188.506 454.995L189.45 454.051Z" fill="black"/>
<path opacity="0.2" d="M199.326 468.721C199.126 468.52 198.967 468.283 198.858 468.021C198.75 467.759 198.694 467.479 198.694 467.196C198.694 466.912 198.75 466.632 198.858 466.37C198.967 466.109 199.126 465.871 199.326 465.671L202.843 461.78L201.899 462.724L198.382 466.615C198.182 466.815 198.023 467.053 197.914 467.314C197.806 467.576 197.75 467.856 197.75 468.14C197.75 468.423 197.806 468.703 197.914 468.965C198.023 469.227 198.182 469.464 198.382 469.665C198.582 469.865 198.82 470.024 199.082 470.132C199.343 470.241 199.624 470.296 199.907 470.296C200.19 470.296 200.471 470.241 200.732 470.132C200.994 470.024 201.232 469.865 201.432 469.665L205.208 466.034L206.152 465.09L202.376 468.721C202.176 468.921 201.938 469.08 201.676 469.188C201.415 469.297 201.134 469.352 200.851 469.352C200.568 469.352 200.287 469.297 200.026 469.188C199.764 469.08 199.526 468.921 199.326 468.721V468.721Z" fill="black"/>
<path opacity="0.2" d="M208.767 479.614C208.561 479.408 208.399 479.163 208.291 478.893C208.183 478.624 208.13 478.335 208.137 478.044L207.662 478.519C207.424 478.757 207.142 478.946 206.831 479.074C206.521 479.203 206.188 479.269 205.852 479.269C205.515 479.269 205.183 479.203 204.872 479.074C204.561 478.946 204.279 478.757 204.041 478.519C203.804 478.282 203.615 477.999 203.486 477.689C203.358 477.378 203.291 477.045 203.291 476.709C203.291 476.373 203.358 476.04 203.486 475.729C203.615 475.418 203.804 475.136 204.041 474.898L204.437 474.503C204.021 474.481 203.62 474.339 203.284 474.093C202.947 473.848 202.688 473.511 202.539 473.122C202.39 472.733 202.357 472.309 202.444 471.902C202.531 471.494 202.735 471.121 203.03 470.827L207.387 466.324L206.443 467.268L202.086 471.771C201.791 472.065 201.587 472.438 201.5 472.846C201.413 473.253 201.446 473.677 201.595 474.066C201.744 474.455 202.003 474.792 202.34 475.037C202.676 475.283 203.077 475.425 203.493 475.447L203.097 475.842C202.617 476.323 202.347 476.974 202.347 477.653C202.347 478.332 202.617 478.983 203.097 479.463C203.577 479.943 204.229 480.213 204.908 480.213C205.587 480.213 206.238 479.943 206.718 479.463L207.193 478.988C207.184 479.419 207.303 479.842 207.537 480.203C207.77 480.565 208.106 480.848 208.502 481.017C208.898 481.186 209.335 481.233 209.758 481.151C210.18 481.069 210.569 480.862 210.873 480.558L211.817 479.614C211.616 479.814 211.379 479.973 211.117 480.081C210.855 480.19 210.575 480.245 210.292 480.245C210.008 480.245 209.728 480.19 209.466 480.081C209.205 479.973 208.967 479.814 208.767 479.614V479.614Z" fill="black"/>
<path opacity="0.2" d="M193.952 463.347C193.992 463.023 193.957 462.694 193.851 462.385C193.744 462.076 193.569 461.796 193.338 461.565C193.107 461.334 192.826 461.158 192.518 461.052C192.209 460.946 191.88 460.911 191.556 460.95C191.24 460.634 191.03 460.228 190.956 459.787L190.012 460.731C190.811 460.955 191.524 461.415 192.058 462.049C192.593 462.684 192.924 463.465 193.008 464.291C193.208 464.491 193.446 464.65 193.708 464.758C193.969 464.867 194.25 464.923 194.533 464.923C194.816 464.923 195.097 464.867 195.359 464.758C195.62 464.65 195.858 464.491 196.058 464.291L199.876 460.701L200.82 459.757L197.002 463.347C196.802 463.547 196.564 463.706 196.303 463.814C196.041 463.923 195.76 463.979 195.477 463.979C195.194 463.979 194.914 463.923 194.652 463.814C194.39 463.706 194.152 463.547 193.952 463.347V463.347Z" fill="black"/>
<path opacity="0.2" d="M204.736 459.887C204.87 459.755 204.976 459.597 205.049 459.423C205.121 459.249 205.159 459.063 205.159 458.874C205.16 458.686 205.123 458.499 205.051 458.325C204.979 458.151 204.874 457.993 204.74 457.86C204.607 457.727 204.449 457.621 204.275 457.549C204.101 457.477 203.914 457.441 203.726 457.441C203.538 457.441 203.351 457.479 203.177 457.552C203.004 457.624 202.846 457.73 202.713 457.864L201.769 458.808C201.902 458.674 202.059 458.568 202.233 458.496C202.407 458.423 202.593 458.385 202.782 458.385C202.97 458.385 203.157 458.421 203.331 458.493C203.505 458.565 203.663 458.671 203.796 458.804C203.93 458.937 204.035 459.095 204.107 459.269C204.179 459.444 204.216 459.63 204.215 459.819C204.215 460.007 204.177 460.193 204.105 460.367C204.032 460.541 203.926 460.699 203.792 460.831L204.736 459.887Z" fill="black"/>
<path d="M187.634 443.159L187.271 442.795L185.31 444.756L185.674 445.119L187.634 443.159Z" fill="#3F3D56"/>
<path d="M195.55 448.968L195.187 448.605L193.226 450.566L193.589 450.929L195.55 448.968Z" fill="#3F3D56"/>
<path d="M203.386 444.694L203.023 444.331L201.062 446.291L201.425 446.655L203.386 444.694Z" fill="#3F3D56"/>
<path d="M179.138 447.951L178.775 447.588L176.814 449.549L177.177 449.912L179.138 447.951Z" fill="#3F3D56"/>
<path d="M197.396 459.357L197.304 458.852L194.576 459.348L194.668 459.854L197.396 459.357Z" fill="#3F3D56"/>
<path d="M208.794 454.37L208.702 453.865L205.974 454.362L206.066 454.867L208.794 454.37Z" fill="#3F3D56"/>
<path d="M181.266 437.031L180.756 437.091L181.077 439.845L181.587 439.786L181.266 437.031Z" fill="#3F3D56"/>
<path d="M175.238 435.071L174.728 435.13L175.049 437.884L175.559 437.825L175.238 435.071Z" fill="#3F3D56"/>
<path d="M193.589 439.891L193.226 439.528L191.265 441.488L191.628 441.851L193.589 439.891Z" fill="white"/>
<path d="M208.549 449.864L208.186 449.501L206.225 451.461L206.588 451.825L208.549 449.864Z" fill="white"/>
<path d="M214.248 464.111L213.885 463.748L211.924 465.709L212.287 466.072L214.248 464.111Z" fill="white"/>
<path d="M173.546 440.036L173.183 439.673L171.222 441.633L171.585 441.997L173.546 440.036Z" fill="white"/>
<path d="M198.617 452.987L198.455 452.5L195.823 453.373L195.985 453.86L198.617 452.987Z" fill="white"/>
<path d="M189.685 458.579L189.523 458.091L186.891 458.965L187.053 459.452L189.685 458.579Z" fill="white"/>
<path d="M188.679 449.602L188.166 449.633L188.333 452.401L188.845 452.37L188.679 449.602Z" fill="white"/>
<path d="M189.986 433.916L189.473 433.947L189.64 436.715L190.152 436.684L189.986 433.916Z" fill="white"/>
<path d="M192.79 446.209L192.427 445.845L190.466 447.806L190.83 448.169L192.79 446.209Z" fill="#FF6584"/>
<path d="M209.887 470.429L209.524 470.066L207.564 472.027L207.927 472.39L209.887 470.429Z" fill="#FF6584"/>
<path d="M212.737 458.319L212.374 457.956L210.413 459.917L210.776 460.28L212.737 458.319Z" fill="#FF6584"/>
<path d="M182.359 442.104L181.863 441.971L181.145 444.649L181.641 444.782L182.359 442.104Z" fill="#FF6584"/>
<path d="M198.771 441.377L198.275 441.245L197.557 443.923L198.053 444.056L198.771 441.377Z" fill="#FF6584"/>
<path d="M196.157 434.842L195.661 434.709L194.943 437.387L195.439 437.52L196.157 434.842Z" fill="#FF6584"/>
<path d="M181.607 433.718L181.244 433.355L179.283 435.316L179.646 435.679L181.607 433.718Z" fill="#FF6584"/>
<path d="M552.364 324.412C552.364 322.901 551.764 321.451 550.695 320.382C549.626 319.314 548.177 318.713 546.665 318.713C545.154 318.713 543.704 319.314 542.635 320.382C541.566 321.451 540.966 322.901 540.966 324.412V579.905C540.966 581.416 541.566 582.866 542.635 583.934C543.704 585.003 545.154 585.604 546.665 585.604C548.177 585.604 549.626 585.003 550.695 583.934C551.764 582.866 552.364 581.416 552.364 579.905V326.068" fill="#3F3D56"/>
<path d="M625.062 337.971C615.05 319.089 598.348 304.627 578.228 297.419C558.108 290.211 536.021 290.777 516.296 299.006C496.572 307.235 480.632 322.533 471.599 341.903C462.567 361.273 461.095 383.318 467.47 403.717H478.106C480.243 403.717 481.996 406.096 481.996 409.01H483.947C486.092 409.01 487.844 411.389 487.844 414.303C487.844 417.209 486.092 419.596 483.947 419.596H481.996C481.991 420.038 481.946 420.479 481.86 420.914H490.765C492.909 420.914 494.662 423.3 494.662 426.206C494.662 429.12 492.909 431.499 490.765 431.499H482.259C495.574 448.189 514.637 459.309 535.718 462.684C556.8 466.06 578.382 461.448 596.242 449.75C614.102 438.053 626.955 420.112 632.285 399.439C637.616 378.765 635.04 356.846 625.063 337.971H625.062ZM566.747 409.024C561.418 412.033 555.4 413.609 549.28 413.597C548.054 413.597 546.83 413.535 545.611 413.412C537.185 412.532 529.352 408.668 523.525 402.519C517.698 396.369 514.261 388.339 513.835 379.878C513.409 371.418 516.022 363.083 521.202 356.38C526.382 349.676 533.788 345.045 542.083 343.323C550.378 341.601 559.015 342.901 566.435 346.989C573.856 351.076 579.57 357.681 582.548 365.613C585.525 373.544 585.569 382.278 582.671 390.239C579.774 398.2 574.126 404.862 566.747 409.024V409.024Z" fill="#FD9D95"/>
<path opacity="0.2" d="M494.428 424.427C494.583 423.846 494.661 423.247 494.661 422.646C494.661 419.735 492.908 417.354 490.765 417.354H487.12C486.848 417.982 486.407 418.523 485.848 418.918C485.288 419.313 484.63 419.547 483.947 419.593H481.999C481.995 420.037 481.948 420.48 481.859 420.916H490.765C492.448 420.916 493.886 422.387 494.428 424.427Z" fill="black"/>
<path opacity="0.2" d="M483.947 409.009C485.629 409.009 487.068 410.48 487.61 412.52C487.764 411.939 487.843 411.34 487.843 410.739C487.843 407.828 486.09 405.447 483.947 405.447H481.999C481.999 402.536 480.245 400.155 478.102 400.155H467.47C465.045 392.384 463.741 384.307 463.597 376.168C463.583 376.801 463.565 377.434 463.565 378.071C463.558 386.768 464.874 395.416 467.47 403.717H478.102C480.245 403.717 481.999 406.098 481.999 409.009H483.947Z" fill="black"/>
<path opacity="0.2" d="M549.283 460.227C537.186 460.24 525.225 457.686 514.189 452.734C503.153 447.782 493.293 440.544 485.261 431.5H482.256C493.335 445.399 508.461 455.511 525.541 460.434C542.62 465.358 560.807 464.85 577.585 458.982C594.363 453.113 608.902 442.173 619.188 427.677C629.475 413.181 635 395.846 635 378.071C635 377.535 634.985 377.003 634.975 376.469C634.463 398.857 625.211 420.156 609.196 435.809C593.181 451.462 571.677 460.226 549.283 460.227Z" fill="black"/>
<path opacity="0.2" d="M549.28 335.421C540.844 335.422 532.599 337.925 525.586 342.612C518.574 347.3 513.108 353.961 509.881 361.755C506.654 369.548 505.811 378.123 507.457 386.396C509.104 394.669 513.166 402.268 519.131 408.232C525.096 414.196 532.696 418.257 540.969 419.902C549.242 421.547 557.817 420.702 565.61 417.474C573.403 414.246 580.063 408.779 584.749 401.765C589.436 394.752 591.937 386.506 591.937 378.071C591.923 366.762 587.425 355.921 579.428 347.925C571.43 339.929 560.588 335.432 549.28 335.421V335.421ZM566.747 409.024C561.418 412.033 555.4 413.609 549.28 413.597C548.054 413.597 546.83 413.535 545.611 413.412C537.185 412.532 529.352 408.668 523.525 402.519C517.698 396.369 514.261 388.339 513.835 379.878C513.409 371.417 516.022 363.083 521.202 356.38C526.382 349.676 533.788 345.045 542.083 343.323C550.378 341.601 559.015 342.901 566.435 346.989C573.855 351.076 579.57 357.681 582.548 365.613C585.525 373.544 585.569 382.278 582.671 390.239C579.774 398.199 574.126 404.862 566.747 409.024Z" fill="black"/>
<path d="M625.062 336.548V350.807C625.062 351.848 624.752 352.866 624.169 353.728C623.586 354.591 622.759 355.26 621.793 355.648C620.827 356.037 619.767 356.127 618.749 355.907C617.731 355.688 616.803 355.169 616.083 354.417V356.042C616.083 357.685 615.43 359.26 614.268 360.422C613.107 361.583 611.531 362.236 609.889 362.236C608.246 362.236 606.67 361.583 605.509 360.422C604.347 359.26 603.695 357.685 603.695 356.042V354.688C602.945 355.362 602.017 355.804 601.021 355.961C600.026 356.118 599.006 355.983 598.086 355.572C597.166 355.162 596.384 354.493 595.836 353.647C595.288 352.801 594.997 351.815 594.999 350.807L594.75 335.651V332.155C594.75 331.595 594.528 331.058 594.131 330.662C593.735 330.266 593.198 330.043 592.638 330.043C592.078 330.043 591.541 330.266 591.145 330.662C590.749 331.058 590.526 331.595 590.526 332.155V335.651L590.278 348.322C590.278 349.706 589.728 351.033 588.75 352.012C587.771 352.99 586.444 353.54 585.06 353.54C583.676 353.54 582.349 352.99 581.371 352.012C580.392 351.033 579.843 349.706 579.843 348.322L579.204 335.651V329.174C579.204 328.256 578.84 327.376 578.19 326.727C577.541 326.078 576.661 325.713 575.743 325.713C574.825 325.713 573.945 326.078 573.296 326.727C572.647 327.376 572.282 328.256 572.282 329.174V335.651L571.892 348.322C571.893 349.408 571.555 350.466 570.926 351.35C570.297 352.234 569.407 352.9 568.381 353.254C567.356 353.608 566.245 353.634 565.204 353.327C564.164 353.02 563.244 352.396 562.575 351.542C561.75 352.597 560.55 353.293 559.224 353.486C557.899 353.678 556.55 353.353 555.459 352.576V356.042C555.459 357.685 554.807 359.26 553.645 360.422C552.483 361.583 550.908 362.236 549.265 362.236C547.622 362.236 546.047 361.583 544.885 360.422C543.724 359.26 543.071 357.685 543.071 356.042V345.341C543.072 346.535 542.663 347.692 541.913 348.621C541.163 349.549 540.117 350.192 538.95 350.443C537.782 350.693 536.565 350.535 535.5 349.996C534.435 349.457 533.587 348.569 533.098 347.48V356.042C533.096 357.684 532.443 359.257 531.282 360.418C530.12 361.578 528.546 362.229 526.904 362.229C525.263 362.229 523.688 361.578 522.527 360.418C521.365 359.257 520.712 357.684 520.71 356.042V335.651H520.675V356.042C520.675 357.685 520.023 359.26 518.861 360.422C517.7 361.583 516.124 362.236 514.481 362.236C512.839 362.236 511.263 361.583 510.102 360.422C508.94 359.26 508.287 357.685 508.287 356.042V347.552C507.785 348.627 506.931 349.499 505.866 350.023C504.801 350.547 503.589 350.692 502.431 350.434C501.273 350.176 500.237 349.531 499.495 348.605C498.753 347.679 498.348 346.528 498.349 345.341V335.651H497.817V353.061C497.817 354.703 497.165 356.279 496.003 357.44C494.842 358.602 493.266 359.255 491.623 359.255C489.981 359.255 488.405 358.602 487.244 357.44C486.082 356.279 485.429 354.703 485.429 353.061V345.341C485.429 346.725 484.88 348.052 483.901 349.03C482.923 350.009 481.596 350.559 480.212 350.559C478.828 350.559 477.501 350.009 476.522 349.03C475.544 348.052 474.994 346.725 474.994 345.341V333.855C482.646 320.579 493.716 309.597 507.052 302.05C520.387 294.503 535.502 290.668 550.822 290.943C566.143 291.218 581.11 295.593 594.166 303.614C607.222 311.634 617.891 323.007 625.062 336.548V336.548Z" fill="#E6E6E6"/>
<path opacity="0.2" d="M514.481 359.254C513.668 359.254 512.863 359.094 512.111 358.783C511.359 358.472 510.677 358.016 510.101 357.44C509.526 356.865 509.07 356.182 508.759 355.431C508.448 354.679 508.287 353.874 508.287 353.06V356.29C508.287 357.933 508.94 359.509 510.102 360.67C511.263 361.832 512.839 362.484 514.481 362.484C516.124 362.484 517.7 361.832 518.861 360.67C520.023 359.509 520.675 357.933 520.675 356.29V353.06C520.675 353.874 520.515 354.679 520.204 355.431C519.893 356.182 519.437 356.865 518.861 357.44C518.286 358.016 517.603 358.472 516.852 358.783C516.1 359.094 515.295 359.254 514.481 359.254V359.254Z" fill="black"/>
<path opacity="0.2" d="M526.904 359.254C526.091 359.254 525.285 359.094 524.534 358.783C523.782 358.472 523.099 358.016 522.524 357.44C521.949 356.865 521.493 356.182 521.182 355.431C520.87 354.679 520.71 353.874 520.71 353.06V356.29C520.71 357.933 521.363 359.509 522.524 360.67C523.686 361.832 525.262 362.484 526.904 362.484C528.547 362.484 530.123 361.832 531.284 360.67C532.446 359.509 533.098 357.933 533.098 356.29V353.06C533.098 353.874 532.938 354.679 532.627 355.431C532.316 356.182 531.859 356.865 531.284 357.44C530.709 358.016 530.026 358.472 529.275 358.783C528.523 359.094 527.718 359.254 526.904 359.254Z" fill="black"/>
<path opacity="0.2" d="M508.287 344.571C507.785 345.646 506.931 346.517 505.866 347.041C504.801 347.565 503.589 347.71 502.431 347.453C501.273 347.195 500.237 346.55 499.495 345.624C498.753 344.698 498.348 343.546 498.349 342.359V345.589C498.348 346.776 498.753 347.928 499.495 348.854C500.237 349.78 501.273 350.425 502.431 350.683C503.589 350.94 504.801 350.795 505.866 350.271C506.931 349.747 507.785 348.876 508.287 347.801V344.571Z" fill="black"/>
<path opacity="0.2" d="M520.71 332.67H520.675V335.9H520.71V332.67Z" fill="black"/>
<path opacity="0.2" d="M485.429 342.359C485.429 343.743 484.88 345.07 483.901 346.049C482.923 347.027 481.596 347.577 480.212 347.577C478.828 347.577 477.501 347.027 476.522 346.049C475.544 345.07 474.994 343.743 474.994 342.359V345.589C474.994 346.973 475.544 348.3 476.522 349.279C477.501 350.257 478.828 350.807 480.212 350.807C481.596 350.807 482.923 350.257 483.901 349.279C484.88 348.3 485.429 346.973 485.429 345.589V342.359Z" fill="black"/>
<path opacity="0.2" d="M498.349 332.67H497.818V335.9H498.349V332.67Z" fill="black"/>
<path opacity="0.2" d="M491.623 356.273C490.81 356.273 490.005 356.113 489.253 355.802C488.502 355.49 487.819 355.034 487.243 354.459C486.668 353.884 486.212 353.201 485.901 352.449C485.59 351.698 485.429 350.892 485.429 350.079V353.309C485.429 354.952 486.082 356.527 487.244 357.689C488.405 358.85 489.981 359.503 491.623 359.503C493.266 359.503 494.842 358.85 496.003 357.689C497.165 356.527 497.817 354.952 497.817 353.309V350.079C497.818 350.892 497.657 351.698 497.346 352.449C497.035 353.201 496.579 353.884 496.003 354.459C495.428 355.034 494.745 355.49 493.994 355.802C493.242 356.113 492.437 356.273 491.623 356.273V356.273Z" fill="black"/>
<path opacity="0.2" d="M549.265 359.254C548.452 359.254 547.646 359.094 546.895 358.783C546.143 358.472 545.46 358.016 544.885 357.44C544.31 356.865 543.854 356.182 543.543 355.431C543.231 354.679 543.071 353.874 543.071 353.06V356.29C543.071 357.933 543.724 359.509 544.885 360.67C546.047 361.832 547.622 362.484 549.265 362.484C550.908 362.484 552.483 361.832 553.645 360.67C554.807 359.509 555.459 357.933 555.459 356.29V353.06C555.459 353.874 555.299 354.679 554.988 355.431C554.677 356.182 554.22 356.865 553.645 357.44C553.07 358.016 552.387 358.472 551.636 358.783C550.884 359.094 550.079 359.254 549.265 359.254Z" fill="black"/>
<path opacity="0.2" d="M594.75 329.174C594.75 328.614 594.528 328.077 594.132 327.681C593.736 327.285 593.198 327.062 592.638 327.062C592.078 327.062 591.541 327.285 591.145 327.681C590.749 328.077 590.526 328.614 590.526 329.174V332.404C590.526 331.844 590.749 331.307 591.145 330.911C591.541 330.514 592.078 330.292 592.638 330.292C593.198 330.292 593.736 330.514 594.132 330.911C594.528 331.307 594.75 331.844 594.75 332.404V329.174Z" fill="black"/>
<path opacity="0.2" d="M543.071 342.359C543.072 343.553 542.663 344.711 541.913 345.639C541.163 346.568 540.117 347.211 538.95 347.461C537.783 347.711 536.565 347.554 535.5 347.015C534.435 346.475 533.587 345.587 533.098 344.499V347.728C533.587 348.817 534.435 349.705 535.5 350.245C536.565 350.784 537.783 350.941 538.95 350.691C540.117 350.441 541.163 349.797 541.913 348.869C542.663 347.941 543.072 346.783 543.071 345.589V342.359Z" fill="black"/>
<path opacity="0.2" d="M585.06 350.559C584.375 350.559 583.697 350.424 583.064 350.162C582.43 349.899 581.855 349.515 581.371 349.031C580.886 348.546 580.502 347.971 580.24 347.338C579.978 346.705 579.843 346.026 579.843 345.341L579.204 332.67V335.9L579.843 348.571C579.843 349.955 580.392 351.282 581.371 352.26C582.349 353.239 583.677 353.788 585.06 353.788C586.444 353.788 587.771 353.239 588.75 352.26C589.728 351.282 590.278 349.955 590.278 348.571L590.526 335.9V332.67L590.278 345.341C590.278 346.026 590.143 346.705 589.881 347.338C589.619 347.971 589.234 348.546 588.75 349.031C588.265 349.515 587.69 349.899 587.057 350.162C586.424 350.424 585.746 350.559 585.06 350.559V350.559Z" fill="black"/>
<path opacity="0.2" d="M619.844 353.043C619.141 353.043 618.445 352.901 617.799 352.625C617.152 352.348 616.568 351.944 616.083 351.436V353.06C616.083 354.703 615.43 356.279 614.268 357.44C613.107 358.602 611.531 359.255 609.888 359.255C608.246 359.255 606.67 358.602 605.509 357.44C604.347 356.279 603.694 354.703 603.694 353.06V351.706C602.945 352.38 602.017 352.823 601.021 352.98C600.026 353.137 599.006 353.001 598.086 352.591C597.166 352.18 596.384 351.511 595.836 350.666C595.288 349.82 594.997 348.833 594.999 347.826L594.75 332.67V335.9L594.999 351.055C594.997 352.063 595.288 353.05 595.836 353.895C596.384 354.741 597.166 355.41 598.086 355.821C599.006 356.231 600.026 356.366 601.021 356.209C602.017 356.053 602.945 355.61 603.694 354.936V356.29C603.694 357.933 604.347 359.509 605.509 360.67C606.67 361.832 608.246 362.484 609.888 362.484C611.531 362.484 613.107 361.832 614.268 360.67C615.43 359.509 616.083 357.933 616.083 356.29V354.665C616.803 355.417 617.731 355.936 618.749 356.156C619.767 356.375 620.827 356.285 621.793 355.897C622.759 355.508 623.586 354.84 624.169 353.977C624.752 353.114 625.062 352.097 625.062 351.055V347.825C625.062 348.511 624.927 349.189 624.665 349.822C624.403 350.455 624.018 351.031 623.534 351.515C623.049 352 622.474 352.384 621.841 352.646C621.208 352.908 620.529 353.043 619.844 353.043V353.043Z" fill="black"/>
<path opacity="0.2" d="M566.675 350.558C565.885 350.559 565.105 350.379 564.394 350.033C563.684 349.686 563.062 349.183 562.575 348.561C561.75 349.616 560.55 350.312 559.224 350.504C557.899 350.697 556.551 350.371 555.459 349.594V352.824C556.551 353.601 557.899 353.927 559.224 353.734C560.55 353.542 561.75 352.846 562.575 351.791C563.244 352.645 564.164 353.269 565.204 353.576C566.245 353.882 567.356 353.857 568.382 353.502C569.407 353.148 570.297 352.482 570.926 351.598C571.555 350.714 571.893 349.656 571.892 348.571L572.282 335.9V332.67L571.892 345.341C571.892 346.026 571.757 346.705 571.495 347.338C571.233 347.971 570.849 348.546 570.364 349.03C569.88 349.515 569.304 349.899 568.671 350.161C568.038 350.424 567.36 350.559 566.675 350.558V350.558Z" fill="black"/>
<path opacity="0.2" d="M579.204 326.192C579.204 325.275 578.84 324.394 578.191 323.745C577.541 323.096 576.661 322.731 575.743 322.731C574.825 322.731 573.945 323.096 573.296 323.745C572.647 324.394 572.282 325.275 572.282 326.192V329.422C572.282 328.504 572.647 327.624 573.296 326.975C573.945 326.326 574.825 325.961 575.743 325.961C576.661 325.961 577.541 326.326 578.191 326.975C578.84 327.624 579.204 328.504 579.204 329.422V326.192Z" fill="black"/>
<path d="M521.331 326.831H520.089V333.539H521.331V326.831Z" fill="#3F3D56"/>
<path d="M544.81 323.228H543.568V329.937H544.81V323.228Z" fill="#3F3D56"/>
<path d="M610.403 327.204H609.161V333.912H610.403V327.204Z" fill="#3F3D56"/>
<path d="M514.996 349.565H513.753V356.273H514.996V349.565Z" fill="#3F3D56"/>
<path d="M565.74 337.843L564.718 337.136L560.901 342.652L561.923 343.359L565.74 337.843Z" fill="#3F3D56"/>
<path d="M499.955 327.244L499.184 328.218L504.445 332.381L505.216 331.406L499.955 327.244Z" fill="#3F3D56"/>
<path d="M573.001 302.15L572.231 303.124L577.491 307.287L578.262 306.312L573.001 302.15Z" fill="#3F3D56"/>
<path d="M486.289 334.203L485.518 335.178L490.779 339.34L491.55 338.366L486.289 334.203Z" fill="#3F3D56"/>
<path d="M525.928 311.054H524.686V317.762H525.928V311.054Z" fill="white"/>
<path d="M491.889 345.589H490.647V352.298H491.889V345.589Z" fill="white"/>
<path d="M550.028 301.364H548.786V308.073H550.028V301.364Z" fill="white"/>
<path d="M609.657 343.353H608.415V350.062H609.657V343.353Z" fill="white"/>
<path d="M556.932 324.857L555.822 324.3L552.814 330.296L553.924 330.853L556.932 324.857Z" fill="white"/>
<path d="M551.218 349.702L550.107 349.145L547.099 355.141L548.209 355.698L551.218 349.702Z" fill="white"/>
<path d="M619.792 338.522L618.681 337.965L615.673 343.961L616.783 344.518L619.792 338.522Z" fill="white"/>
<path d="M534.141 336.067L533.317 336.996L538.336 341.447L539.161 340.517L534.141 336.067Z" fill="white"/>
<path d="M509.544 306.997L508.72 307.927L513.739 312.377L514.563 311.448L509.544 306.997Z" fill="white"/>
<path d="M591.286 318.178L590.462 319.108L595.481 323.558L596.305 322.628L591.286 318.178Z" fill="white"/>
<path d="M561.223 296.314L560.399 297.243L565.418 301.694L566.242 300.764L561.223 296.314Z" fill="white"/>
<path d="M535.369 323.228H534.127V329.937H535.369V323.228Z" fill="#FF6584"/>
<path d="M605.453 327.465L604.309 326.979L601.688 333.154L602.831 333.639L605.453 327.465Z" fill="#FF6584"/>
<path d="M510.502 334.051L509.427 334.672L512.781 340.481L513.857 339.86L510.502 334.051Z" fill="#FF6584"/>
<path d="M581.561 329.33L580.485 329.951L583.839 335.761L584.915 335.14L581.561 329.33Z" fill="#FF6584"/>
<path d="M537.336 304.733L536.26 305.354L539.614 311.164L540.69 310.543L537.336 304.733Z" fill="#FF6584"/>
<path d="M590.008 303.491L588.932 304.112L592.287 309.921L593.363 309.3L590.008 303.491Z" fill="#FF6584"/>
<path d="M521.683 298.025L520.607 298.646L523.961 304.455L525.037 303.834L521.683 298.025Z" fill="#FF6584"/>
<path d="M566.426 309.812H565.184V316.52H566.426V309.812Z" fill="#FF6584"/>
<path d="M494.871 320.992H493.629V327.701H494.871V320.992Z" fill="#FF6584"/>
<path d="M252.365 566.094C268.895 566.094 282.294 552.694 282.294 536.165C282.294 519.636 268.895 506.236 252.365 506.236C235.836 506.236 222.437 519.636 222.437 536.165C222.437 552.694 235.836 566.094 252.365 566.094Z" fill="#2F2E41"/>
<path d="M263.925 574.498L272.872 572.878L269.97 556.848L261.023 558.468L263.925 574.498Z" fill="#2F2E41"/>
<path d="M246.031 577.737L254.978 576.117L252.076 560.087L243.129 561.707L246.031 577.737Z" fill="#2F2E41"/>
<path d="M250.781 581.11C253.974 578.406 255.74 575.243 254.726 574.045C253.712 572.848 250.301 574.069 247.108 576.774C243.915 579.478 242.148 582.641 243.162 583.839C244.176 585.036 247.587 583.815 250.781 581.11Z" fill="#2F2E41"/>
<path d="M268.301 577.938C271.495 575.234 273.261 572.071 272.247 570.873C271.233 569.676 267.822 570.898 264.629 573.602C261.436 576.306 259.669 579.469 260.683 580.667C261.697 581.864 265.108 580.643 268.301 577.938Z" fill="#2F2E41"/>
<path d="M250.27 539.073C255.919 539.073 260.499 534.493 260.499 528.844C260.499 523.195 255.919 518.615 250.27 518.615C244.621 518.615 240.041 523.195 240.041 528.844C240.041 534.493 244.621 539.073 250.27 539.073Z" fill="white"/>
<path d="M246.066 528.587C247.949 528.587 249.476 527.061 249.476 525.178C249.476 523.295 247.949 521.768 246.066 521.768C244.183 521.768 242.657 523.295 242.657 525.178C242.657 527.061 244.183 528.587 246.066 528.587Z" fill="#3F3D56"/>
<path d="M275.975 503.606C276.425 492.526 266.876 483.141 254.646 482.644C242.416 482.147 232.137 490.727 231.687 501.807C231.237 512.887 239.738 515.404 251.968 515.901C264.198 516.398 275.525 514.686 275.975 503.606Z" fill="#CFCCE0"/>
<path d="M239.317 534.056C239.896 531.527 233.836 527.98 225.78 526.133C217.724 524.287 210.724 524.84 210.144 527.369C209.565 529.898 215.625 533.445 223.681 535.291C231.737 537.138 238.737 536.585 239.317 534.056Z" fill="#2F2E41"/>
<path d="M298.065 543.826C298.645 541.297 292.585 537.75 284.529 535.903C276.473 534.057 269.473 534.61 268.893 537.139C268.314 539.668 274.374 543.215 282.43 545.061C290.485 546.908 297.486 546.355 298.065 543.826Z" fill="#2F2E41"/>
<path d="M260.585 547.959C260.745 548.841 260.73 549.745 260.541 550.621C260.351 551.496 259.991 552.326 259.481 553.062C258.971 553.799 258.32 554.427 257.567 554.912C256.814 555.397 255.972 555.729 255.091 555.888C254.209 556.048 253.305 556.032 252.429 555.842C251.554 555.652 250.724 555.292 249.988 554.781C249.252 554.27 248.624 553.619 248.14 552.866C247.655 552.112 247.324 551.271 247.165 550.389C246.494 546.683 249.36 545.372 253.065 544.701C256.771 544.03 259.914 544.254 260.585 547.959Z" fill="white"/>
<path d="M422.477 432.334C425.502 424.42 425.94 417.235 423.456 416.285C420.971 415.336 416.505 420.981 413.48 428.895C410.455 436.809 410.017 443.994 412.502 444.944C414.986 445.893 419.452 440.248 422.477 432.334Z" fill="#2F2E41"/>
<path d="M400.107 572.62C417.051 572.62 430.787 558.884 430.787 541.94C430.787 524.995 417.051 511.259 400.107 511.259C383.162 511.259 369.426 524.995 369.426 541.94C369.426 558.884 383.162 572.62 400.107 572.62Z" fill="#2F2E41"/>
<path d="M395.446 566.018H386.126V582.717H395.446V566.018Z" fill="#2F2E41"/>
<path d="M414.087 566.018H404.767V582.717H414.087V566.018Z" fill="#2F2E41"/>
<path d="M393.893 585.824C398.182 585.824 401.66 584.52 401.66 582.911C401.66 581.303 398.182 579.999 393.893 579.999C389.603 579.999 386.126 581.303 386.126 582.911C386.126 584.52 389.603 585.824 393.893 585.824Z" fill="#2F2E41"/>
<path d="M412.534 585.436C416.824 585.436 420.301 584.132 420.301 582.523C420.301 580.914 416.824 579.61 412.534 579.61C408.244 579.61 404.767 580.914 404.767 582.523C404.767 584.132 408.244 585.436 412.534 585.436Z" fill="#2F2E41"/>
<path d="M400.883 544.658C406.674 544.658 411.369 539.964 411.369 534.173C411.369 528.381 406.674 523.687 400.883 523.687C395.092 523.687 390.398 528.381 390.398 534.173C390.398 539.964 395.092 544.658 400.883 544.658Z" fill="white"/>
<path d="M400.883 537.668C402.814 537.668 404.378 536.103 404.378 534.172C404.378 532.242 402.814 530.677 400.883 530.677C398.953 530.677 397.388 532.242 397.388 534.172C397.388 536.103 398.953 537.668 400.883 537.668Z" fill="#3F3D56"/>
<path d="M370.346 513.408C367.868 502.313 375.787 491.103 388.033 488.369C400.279 485.634 412.214 492.411 414.691 503.506C417.169 514.6 409.053 518.692 396.807 521.426C384.561 524.161 372.823 524.502 370.346 513.408Z" fill="#CFCCE0"/>
<path d="M389.621 484.463C406.565 484.463 420.301 470.727 420.301 453.782C420.301 436.838 406.565 423.102 389.621 423.102C372.677 423.102 358.941 436.838 358.941 453.782C358.941 470.727 372.677 484.463 389.621 484.463Z" fill="#2F2E41"/>
<path d="M384.961 477.861H375.64V494.56H384.961V477.861Z" fill="#2F2E41"/>
<path d="M403.602 477.861H394.281V494.56H403.602V477.861Z" fill="#2F2E41"/>
<path d="M383.407 497.667C387.697 497.667 391.174 496.363 391.174 494.754C391.174 493.146 387.697 491.842 383.407 491.842C379.118 491.842 375.64 493.146 375.64 494.754C375.64 496.363 379.118 497.667 383.407 497.667Z" fill="#2F2E41"/>
<path d="M402.048 497.279C406.338 497.279 409.815 495.975 409.815 494.366C409.815 492.757 406.338 491.453 402.048 491.453C397.759 491.453 394.281 492.757 394.281 494.366C394.281 495.975 397.759 497.279 402.048 497.279Z" fill="#2F2E41"/>
<path d="M390.398 456.501C396.189 456.501 400.883 451.807 400.883 446.015C400.883 440.224 396.189 435.53 390.398 435.53C384.607 435.53 379.912 440.224 379.912 446.015C379.912 451.807 384.607 456.501 390.398 456.501Z" fill="white"/>
<path d="M390.398 449.511C392.328 449.511 393.893 447.946 393.893 446.015C393.893 444.085 392.328 442.52 390.398 442.52C388.467 442.52 386.902 444.085 386.902 446.015C386.902 447.946 388.467 449.511 390.398 449.511Z" fill="#3F3D56"/>
<path d="M359.86 425.251C357.383 414.156 365.302 402.946 377.547 400.212C389.793 397.477 401.728 404.254 404.206 415.349C406.683 426.443 398.567 430.535 386.322 433.269C374.076 436.004 362.337 436.345 359.86 425.251Z" fill="#CFCCE0"/>
<path d="M368.925 446.12C370.065 443.717 364.783 438.826 357.128 435.196C349.474 431.565 342.344 430.57 341.204 432.973C340.065 435.376 345.346 440.267 353.001 443.898C360.656 447.528 367.785 448.524 368.925 446.12Z" fill="#2F2E41"/>
<path d="M374.551 464.851C374.551 467.854 382.282 473.783 390.862 473.783C399.441 473.783 407.485 465.329 407.485 462.326C407.485 459.324 399.441 462.909 390.862 462.909C382.282 462.909 374.551 461.848 374.551 464.851Z" fill="white"/>
<path d="M479.215 495.924C481.576 495.924 483.489 494.011 483.489 491.65C483.489 489.29 481.576 487.376 479.215 487.376C476.854 487.376 474.941 489.29 474.941 491.65C474.941 494.011 476.854 495.924 479.215 495.924Z" fill="#6C63FF"/>
<path d="M490.857 461.419C493.217 461.419 495.131 459.506 495.131 457.145C495.131 454.785 493.217 452.871 490.857 452.871C488.496 452.871 486.583 454.785 486.583 457.145C486.583 459.506 488.496 461.419 490.857 461.419Z" fill="#6C63FF"/>
<path d="M480.212 443.782C482.572 443.782 484.486 441.868 484.486 439.508C484.486 437.147 482.572 435.233 480.212 435.233C477.851 435.233 475.938 437.147 475.938 439.508C475.938 441.868 477.851 443.782 480.212 443.782Z" fill="#6C63FF"/>
<path d="M443.315 559.159L445.614 567.476L460.515 563.357L458.216 555.04L443.315 559.159Z" fill="#2F2E41"/>
<path d="M444.347 568.944C445.782 568.547 446.088 565.122 445.03 561.295C443.972 557.467 441.95 554.686 440.515 555.082C439.08 555.479 438.774 558.904 439.832 562.732C440.89 566.559 442.911 569.341 444.347 568.944Z" fill="#2F2E41"/>
<path d="M490.352 530.556C491.406 522.783 490.282 516.215 487.842 515.884C485.402 515.553 482.57 521.586 481.516 529.358C480.463 537.13 481.587 543.699 484.027 544.03C486.467 544.36 489.299 538.328 490.352 530.556Z" fill="#2F2E41"/>
<path d="M483.154 584.947C498.841 584.947 511.557 572.23 511.557 556.544C511.557 540.857 498.841 528.141 483.154 528.141C467.467 528.141 454.751 540.857 454.751 556.544C454.751 572.23 467.467 584.947 483.154 584.947Z" fill="#2F2E41"/>
<path d="M443.315 554.126L445.614 562.443L460.515 558.324L458.216 550.007L443.315 554.126Z" fill="#2F2E41"/>
<path d="M444.346 563.914C445.781 563.517 446.087 560.093 445.029 556.265C443.971 552.437 441.95 549.656 440.514 550.053C439.079 550.45 438.773 553.874 439.831 557.702C440.889 561.53 442.911 564.311 444.346 563.914Z" fill="#2F2E41"/>
<path d="M490.612 549.98C495.973 549.98 500.32 545.634 500.32 540.273C500.32 534.911 495.973 530.565 490.612 530.565C485.251 530.565 480.905 534.911 480.905 540.273C480.905 545.634 485.251 549.98 490.612 549.98Z" fill="white"/>
<path d="M493.717 539.22C495.504 539.22 496.952 537.772 496.952 535.984C496.952 534.197 495.504 532.749 493.717 532.749C491.929 532.749 490.481 534.197 490.481 535.984C490.481 537.772 491.929 539.22 493.717 539.22Z" fill="#3F3D56"/>
<path d="M515.954 576.062C526.465 575.536 534.515 565.705 533.934 554.103C533.354 542.502 524.362 533.523 513.851 534.049C503.341 534.575 501.691 542.826 502.272 554.428C502.853 566.029 505.443 576.588 515.954 576.062Z" fill="#CFCCE0"/>
<path d="M471.546 544.526C469.835 544.665 468.139 544.118 466.832 543.006C465.524 541.894 464.712 540.309 464.573 538.598C464.435 536.887 464.981 535.191 466.093 533.884C467.205 532.576 468.791 531.764 470.502 531.625C474.064 531.337 475.036 534.165 475.324 537.728C475.612 541.29 475.108 544.238 471.546 544.526Z" fill="white"/>
<path d="M479.691 537.305C480.745 529.532 479.621 522.964 477.181 522.633C474.741 522.302 471.909 528.335 470.856 536.107C469.802 543.879 470.926 550.448 473.366 550.779C475.806 551.109 478.638 545.077 479.691 537.305Z" fill="#2F2E41"/>
<path d="M477.078 523.707C479.438 523.707 481.352 521.794 481.352 519.433C481.352 517.072 479.438 515.159 477.078 515.159C474.717 515.159 472.803 517.072 472.803 519.433C472.803 521.794 474.717 523.707 477.078 523.707Z" fill="#6C63FF"/>
<path d="M452.17 421.111C452.268 420.359 452.204 419.595 451.982 418.871C451.76 418.146 451.386 417.477 450.884 416.909C450.382 416.341 449.764 415.887 449.072 415.577C448.38 415.268 447.63 415.11 446.872 415.115H445.179C445.589 414.348 445.803 413.491 445.803 412.622C445.799 411.206 445.235 409.849 444.234 408.848C443.233 407.847 441.876 407.283 440.46 407.279H422.651C421.234 407.279 419.875 407.842 418.873 408.844C417.871 409.846 417.308 411.205 417.308 412.622C417.308 414.039 417.871 415.397 418.873 416.399C419.875 417.401 421.234 417.964 422.651 417.964H424.343C423.934 418.732 423.719 419.588 423.719 420.458C423.723 421.569 424.072 422.651 424.719 423.555C425.365 424.459 426.276 425.14 427.326 425.503C427.228 426.255 427.292 427.019 427.514 427.744C427.735 428.469 428.11 429.138 428.612 429.706C429.114 430.274 429.732 430.728 430.424 431.037C431.116 431.347 431.866 431.504 432.624 431.5H450.434C451.698 431.501 452.921 431.053 453.886 430.237C454.851 429.42 455.495 428.288 455.703 427.041C455.912 425.794 455.671 424.514 455.024 423.428C454.377 422.342 453.366 421.521 452.17 421.111V421.111Z" fill="#6C63FF"/>
<path d="M213.19 459.714L212.804 459.327L210.717 461.414L211.104 461.8L213.19 459.714Z" fill="#3F3D56"/>
<ellipse cx="393.945" cy="282.432" rx="25.6456" ry="25.6456" fill="#FFD8D5"/>
</g>
<ellipse cx="593.248" cy="72.2476" rx="14.2476" ry="14.2476" fill="#FF6584"/>
<defs>
<clipPath id="clip0">
<rect y="177" width="635" height="408.824" fill="white"/>
</clipPath>
</defs>
</svg>
